HIERARCHY
ROOT reference
{
  OFFSET 0 0 0
  CHANNELS 6 Xposition Yposition Zposition Zrotation Xrotation Yrotation
  JOINT root
  {
    OFFSET 0 89.714 0
    CHANNELS 6 Xposition Yposition Zposition Zrotation Xrotation Yrotation
    JOINT Hips
    {
      OFFSET 0 0 0
      CHANNELS 6 Xposition Yposition Zposition Zrotation Xrotation Yrotation
      JOINT Spine
      {
        OFFSET -0.015203 -0.106537 -0.014789
        CHANNELS 6 Xposition Yposition Zposition Zrotation Xrotation Yrotation
        JOINT Spine1
        {
          OFFSET 3.93684 17.4026 5.11321
          CHANNELS 6 Xposition Yposition Zposition Zrotation Xrotation Yrotation
          JOINT Spine2
          {
            OFFSET 3.93678 16.907 6.57505
            CHANNELS 6 Xposition Yposition Zposition Zrotation Xrotation Yrotation
            JOINT Neck
            {
              OFFSET 5.9722 14.8613 9.3798
              CHANNELS 6 Xposition Yposition Zposition Zrotation Xrotation Yrotation
              JOINT Head
              {
                OFFSET 3.78039 8.20694 7.16562
                CHANNELS 6 Xposition Yposition Zposition Zrotation Xrotation Yrotation
                End Site
                {
                  OFFSET 0 0 0
                }
              }
            }
            JOINT RightShoulder
            {
              OFFSET 3.36963 14.3324 11.8717
              CHANNELS 6 Xposition Yposition Zposition Zrotation Xrotation Yrotation
              JOINT RightArm
              {
                OFFSET -10.2302 -4.11527 11.7053
                CHANNELS 6 Xposition Yposition Zposition Zrotation Xrotation Yrotation
                JOINT RightForearm
                {
                  OFFSET 1.20457 -10.985 27.2496
                  CHANNELS 6 Xposition Yposition Zposition Zrotation Xrotation Yrotation
                  JOINT RightHand
                  {
                    OFFSET 11.7023 -1.52848 21.9572
                    CHANNELS 6 Xposition Yposition Zposition Zrotation Xrotation Yrotation
                    End Site
                    {
                      OFFSET 0 0 0
                    }
                  }
                }
              }
            }
            JOINT LeftShoulder
            {
              OFFSET 8.58235 15.3773 6.89867
              CHANNELS 6 Xposition Yposition Zposition Zrotation Xrotation Yrotation
              JOINT LeftArm
              {
                OFFSET 10.9232 1.67923 -11.682
                CHANNELS 6 Xposition Yposition Zposition Zrotation Xrotation Yrotation
                JOINT LeftForearm
                {
                  OFFSET -0.717093 -15.9339 -24.7035
                  CHANNELS 6 Xposition Yposition Zposition Zrotation Xrotation Yrotation
                  JOINT LeftHand
                  {
                    OFFSET 7.20695 -19.1998 14.1714
                    CHANNELS 6 Xposition Yposition Zposition Zrotation Xrotation Yrotation
                    End Site
                    {
                      OFFSET 0 0 0
                    }
                  }
                }
              }
            }
          }
        }
      }
      JOINT RightUpLeg
      {
        OFFSET -7.3888 0.243269 6.0585
        CHANNELS 6 Xposition Yposition Zposition Zrotation Xrotation Yrotation
        JOINT RightLeg
        {
          OFFSET -3.28208 -41.9395 16.047
          CHANNELS 6 Xposition Yposition Zposition Zrotation Xrotation Yrotation
          JOINT RightFoot
          {
            OFFSET -1.49651 -39.7124 -10.7825
            CHANNELS 6 Xposition Yposition Zposition Zrotation Xrotation Yrotation
            JOINT RightToe
            {
              OFFSET -3.13625 -7.17479 16.2119
              CHANNELS 6 Xposition Yposition Zposition Zrotation Xrotation Yrotation
              End Site
              {
                OFFSET 0 0 0
              }
            }
          }
        }
      }
      JOINT LeftUpLeg
      {
        OFFSET 7.3888 -0.243279 -6.0585
        CHANNELS 6 Xposition Yposition Zposition Zrotation Xrotation Yrotation
        JOINT LeftLeg
        {
          OFFSET 21.949 -39.1408 3.66606
          CHANNELS 6 Xposition Yposition Zposition Zrotation Xrotation Yrotation
          JOINT LeftFoot
          {
            OFFSET 2.9339 -39.0208 -12.8195
            CHANNELS 6 Xposition Yposition Zposition Zrotation Xrotation Yrotation
            JOINT LeftToe
            {
              OFFSET 12.6546 -11.1333 6.32858
              CHANNELS 6 Xposition Yposition Zposition Zrotation Xrotation Yrotation
              End Site
              {
                OFFSET 0 0 0
              }
            }
          }
        }
      }
    }
  }
}
MOTION
Frames:	7
Frame Time:	0.0333333
0 0 0 0 0 -0 1e-06 89.714 -4e-06 0 0 -0 -1e-06 -8e-06 -5e-06 -3.77638e-20 -3e-06 -1.3e-05 -0.015203 -0.106537 -0.014789 1e-06 3.49066e-14 2e-06 3.93684 17.4026 5.11321 -2e-06 -1.13745e-21 -1.51661e-21 3.93678 16.907 6.57505 -4e-06 -9e-06 -3e-06 5.9722 14.8613 9.3798 -1e-06 -2e-06 -6e-06 3.78039 8.20694 7.16562 1e-06 7e-06 -1e-06 3.36963 14.3324 11.8717 3e-06 4e-06 -3e-06 -10.2302 -4.11527 11.7053 -4e-06 3e-06 4e-06 1.20457 -10.985 27.2496 -9e-06 3e-06 -3e-06 11.7023 -1.52848 21.9572 -9.00027e-06 -4e-06 -0.00384265 8.58235 15.3773 6.89867 4e-06 8e-06 -2e-06 10.9232 1.67923 -11.682 1e-06 1e-06 -4e-06 -0.717093 -15.9339 -24.7035 -1e-06 -1e-06 -1e-06 7.20695 -19.1998 14.1714 -1.99997e-06 0.00159848 -1e-06 -7.3888 0.243269 6.0585 1.4e-05 6e-06 -9e-06 -3.28208 -41.9395 16.047 -1.05368e-20 5e-06 -1e-06 -1.49651 -39.7124 -10.7825 -1e-06 1.74533e-14 -1e-06 -3.13625 -7.17479 16.2119 1e-06 3.03321e-21 -0 7.3888 -0.243279 -6.0585 -1.3e-05 -7e-06 9.99998e-07 21.949 -39.1408 3.66606 -3e-06 -4e-06 1e-06 2.9339 -39.0208 -12.8195 -1e-06 -1.0472e-13 6e-06 12.6546 -11.1333 6.32858 1e-06 -2e-06 2e-06 
-1.09976 0 2.01487 0 0 -0 -0.833909 89.9217 0.022586 -0.321306 -0.314252 0.257256 -1e-06 -8e-06 -5e-06 0.197693 0.159919 -0.0612271 -0.015203 -0.106537 -0.014789 -0.117826 -0.00112055 0.0416018 3.93684 17.4026 5.11321 -0.179345 -0.0232709 -0.00103085 3.93678 16.907 6.57505 -0.120242 -0.0196704 0.0173458 5.9722 14.8613 9.3798 0.073863 0.0835975 -0.0539558 3.78039 8.20694 7.16562 0.192 0.100672 -0.0786608 3.36963 14.3324 11.8717 0.124234 0.176916 -0.0772558 -10.2302 -4.11527 11.7053 0.0452959 -0.0346638 0.11283 1.20457 -10.985 27.2496 -0.025836 0.0407199 -0.0596626 11.7023 -1.52848 21.9572 0.099227 0.0494564 -0.00384266 8.58235 15.3773 6.89867 0.070966 0.0916525 -0.0965296 10.9232 1.67923 -11.682 0.290653 -0.398347 -0.0409948 -0.717093 -15.9339 -24.7035 -0.0274431 0.149136 0.0357964 7.20695 -19.1998 14.1714 0.033337 0.00159848 -0.0455729 -7.3888 0.243269 6.0585 1.2506 1.74438 0.104398 -3.28208 -41.9395 16.047 -0.0219194 -0.354423 0.0192524 -1.49651 -39.7124 -10.7825 -0.180484 -1.33867 -0.360564 -3.13625 -7.17479 16.2119 1e-06 0 -0 7.3888 -0.243279 -6.0585 2.58416 0.125945 -3.11284 21.949 -39.1408 3.66606 -1.55921 1.34072 0.629544 2.9339 -39.0208 -12.8195 -6.95797 3.3877 5.28968 12.6546 -11.1333 6.32858 1.94338 -5.38767 -0.169284 
-2.12706 0 3.96164 0 0 -0 -1.52978 90.0665 -0.035572 -0.493305 -0.623981 0.331806 -1e-06 -8e-06 -5e-06 0.363654 0.294049 -0.108289 -0.015203 -0.106537 -0.014789 -0.246336 0.0151233 0.128812 3.93684 17.4026 5.11321 -0.360862 -0.0162751 0.075224 3.93678 16.907 6.57505 -0.235344 -0.0162404 0.086006 5.9722 14.8613 9.3798 0.122997 0.130083 -0.111469 3.78039 8.20694 7.16562 0.320458 0.149791 -0.170645 3.36963 14.3324 11.8717 0.155745 0.244993 -0.163098 -10.2302 -4.11527 11.7053 -0.0586095 -0.170464 0.285973 1.20457 -10.985 27.2496 -0.0956856 0.151322 -0.221384 11.7023 -1.52848 21.9572 0.259084 0.137134 -0.00117911 8.58235 15.3773 6.89867 0.176095 0.206155 -0.143891 10.9232 1.67923 -11.682 0.304662 -0.85007 -0.0898493 -0.717093 -15.9339 -24.7035 -0.0330062 0.179321 0.0430573 7.20695 -19.1998 14.1714 0.0713147 0.00652733 -0.1556 -7.3888 0.243269 6.0585 2.32722 3.42921 0.0531639 -3.28208 -41.9395 16.047 -0.046444 -0.753144 0.0407545 -1.49651 -39.7124 -10.7825 -0.0338312 -2.50112 -0.623777 -3.13625 -7.17479 16.2119 1e-06 2.48481e-17 9.93923e-17 7.3888 -0.243279 -6.0585 4.67687 -0.0677415 -7.31998 21.949 -39.1408 3.66606 -3.41684 2.89756 1.41854 2.9339 -39.0208 -12.8195 -11.7497 5.14383 10.2043 12.6546 -11.1333 6.32858 -0.0515285 -7.71814 -0.548666 
-4.03939 0 7.9951 0 0 -0 -2.19419 90.0621 -0.462693 -0.288405 -0.801365 -0.958847 -1e-06 -8e-06 -5e-06 0.34772 0.281031 -0.108304 -0.015203 -0.106537 -0.014789 -0.43449 -0.0520214 0.429876 3.93684 17.4026 5.11321 -0.553727 -0.0952668 0.536121 3.93678 16.907 6.57505 -0.3191 -0.0579833 0.417352 5.9722 14.8613 9.3798 0.162669 0.100545 0.0227336 3.78039 8.20694 7.16562 0.338301 0.0896917 0.0863989 3.36963 14.3324 11.8717 -0.0185878 0.0711425 -0.263534 -10.2302 -4.11527 11.7053 0.554948 -0.11203 0.701817 1.20457 -10.985 27.2496 -0.137374 0.21768 -0.318192 11.7023 -1.52848 21.9572 0.116644 0.00397994 -0.0132961 8.58235 15.3773 6.89867 0.285977 0.271971 0.0555092 10.9232 1.67923 -11.682 -0.53378 -0.94249 0.0286473 -0.717093 -15.9339 -24.7035 0.0415073 -0.226565 -0.0542439 7.20695 -19.1998 14.1714 0.137352 -0.0173996 -0.653448 -7.3888 0.243269 6.0585 3.78033 6.27184 1.08318 -3.28208 -41.9395 16.047 -0.0774887 -1.26141 0.0679242 -1.49651 -39.7124 -10.7825 1.00007 -4.74059 -1.36538 -3.13625 -7.17479 16.2119 1e-06 -4.96962e-17 -3.97569e-16 7.3888 -0.243279 -6.0585 5.45016 -2.225 -15.2297 21.949 -39.1408 3.66606 -7.76741 6.35972 3.4206 2.9339 -39.0208 -12.8195 -9.54528 3.42514 6.51148 12.6546 -11.1333 6.32858 -6.4809 -2.52776 -1.10152 
-5.14042 0 10.1181 0 0 -0 -2.21735 90.0371 -0.79648 -0.216199 -0.889563 -1.81407 -1e-06 -8e-06 -5e-06 0.340373 0.275136 -0.105442 -0.015203 -0.106537 -0.014789 -0.480298 -0.0730892 0.568367 3.93684 17.4026 5.11321 -0.587075 -0.116047 0.739598 3.93678 16.907 6.57505 -0.321594 -0.0656033 0.558211 5.9722 14.8613 9.3798 0.215003 0.090902 0.112292 3.78039 8.20694 7.16562 0.399535 0.0538711 0.265842 3.36963 14.3324 11.8717 -0.12307 -0.0430549 -0.293367 -10.2302 -4.11527 11.7053 1.0491 0.0477052 0.878576 1.20457 -10.985 27.2496 -0.0720678 0.113842 -0.166612 11.7023 -1.52848 21.9572 -0.121903 -0.143378 0.00196095 8.58235 15.3773 6.89867 0.279748 0.239317 0.176007 10.9232 1.67923 -11.682 -1.14694 -0.788962 0.0760754 -0.717093 -15.9339 -24.7035 0.0562338 -0.307231 -0.0735135 7.20695 -19.1998 14.1714 0.189199 0.017977 -0.8379 -7.3888 0.243269 6.0585 4.31969 7.71211 1.67563 -3.28208 -41.9395 16.047 -0.10486 -1.71277 0.091819 -1.49651 -39.7124 -10.7825 1.5888 -5.6494 -1.74836 -3.13625 -7.17479 16.2119 -1e-06 0 7.95139e-16 7.3888 -0.243279 -6.0585 4.80785 -5.96878 -13.8613 21.949 -39.1408 3.66606 -9.78387 7.87251 4.41622 2.9339 -39.0208 -12.8195 -5.3454 2.34699 7.16273 12.6546 -11.1333 6.32858 -10.3792 3.38475 -0.370502 
-6.20114 0 12.0429 0 0 -0 -2.13496 90.0121 -1.18297 -0.206537 -0.989412 -2.5239 -1e-06 -8e-06 -5e-06 0.332578 0.268796 -0.102157 -0.015203 -0.106537 -0.014789 -0.505434 -0.0655625 0.644764 3.93684 17.4026 5.11321 -0.606017 -0.100594 0.851908 3.93678 16.907 6.57505 -0.323971 -0.0514913 0.635142 5.9722 14.8613 9.3798 0.286541 0.125717 0.173611 3.78039 8.20694 7.16562 0.525408 0.0843977 0.399361 3.36963 14.3324 11.8717 -0.214651 -0.154681 -0.286305 -10.2302 -4.11527 11.7053 1.34654 0.180659 1.10892 1.20457 -10.985 27.2496 -0.022134 0.0348787 -0.0511025 11.7023 -1.52848 21.9572 -0.222765 -0.204458 0.0116862 8.58235 15.3773 6.89867 0.22803 0.17378 0.237919 10.9232 1.67923 -11.682 -1.66455 -0.671844 0.0304657 -0.717093 -15.9339 -24.7035 0.0375152 -0.204717 -0.049019 7.20695 -19.1998 14.1714 0.233074 0.0609156 -0.889563 -7.3888 0.243269 6.0585 4.87304 9.14531 1.90057 -3.28208 -41.9395 16.047 -0.135121 -2.21521 0.118177 -1.49651 -39.7124 -10.7825 2.13293 -6.42751 -2.04349 -3.13625 -7.17479 16.2119 -0.143552 0.0494674 -0.00409307 7.3888 -0.243279 -6.0585 3.77592 -9.9748 -12.2951 21.949 -39.1408 3.66606 -11.0353 8.78113 5.05401 2.9339 -39.0208 -12.8195 -2.87521 0.687201 6.7048 12.6546 -11.1333 6.32858 -10.0612 8.90676 0.407634 
-8.0291 0 16.0588 0 0 -0 -1.66054 89.9034 -1.98218 -0.318828 -1.29868 -4.061 -1e-06 -8e-06 -5e-06 0.317647 0.256734 -0.0987603 -0.015203 -0.106537 -0.014789 -0.515209 -0.0105091 0.867009 3.93684 17.4026 5.11321 -0.577251 -0.00715047 1.16107 3.93678 16.907 6.57505 -0.277237 0.0235411 0.837391 5.9722 14.8613 9.3798 0.375589 0.245744 0.305454 3.78039 8.20694 7.16562 0.702243 0.266455 0.668118 3.36963 14.3324 11.8717 -0.39632 -0.347413 -0.350648 -10.2302 -4.11527 11.7053 1.35613 0.413789 1.70532 1.20457 -10.985 27.2496 -0.042645 0.0672653 -0.09851 11.7023 -1.52848 21.9572 -0.149992 -0.157663 0.00532528 8.58235 15.3773 6.89867 0.0800467 0.0416208 0.16877 10.9232 1.67923 -11.682 -2.23582 -0.475526 -0.363904 -0.717093 -15.9339 -24.7035 -0.006763 0.036811 0.00883035 7.20695 -19.1998 14.1714 0.212699 0.132621 -0.825595 -7.3888 0.243269 6.0585 5.97617 12.183 1.99771 -3.28208 -41.9395 16.047 -0.202444 -3.34646 0.176583 -1.49651 -39.7124 -10.7825 2.57263 -7.86841 -2.59647 -3.13625 -7.17479 16.2119 1.94397 -0.64907 0.0776771 7.3888 -0.243279 -6.0585 0.287238 -18.073 -8.65128 21.949 -39.1408 3.66606 -11.1946 8.89517 5.13629 2.9339 -39.0208 -12.8195 -0.980246 -2.88312 6.23463 12.6546 -11.1333 6.32858 -5.21623 21.0203 0.847448 
